<svg width="377" height="290" viewBox="0 0 377 290" fill="none" xmlns="http://www.w3.org/2000/svg">
<rect y="28.9999" width="260" height="232" rx="30" fill="#D3E8ED"/>
<rect opacity="0.8" x="377" y="139.367" width="204.757" height="204.757" rx="30" transform="rotate(132.746 377 139.367)" fill="#5EA1D6"/>
<path d="M168.55 173V119.75H204.325V128.825H178.9V142.55H200.05V150.95H178.9V173H168.55ZM222.283 119.75H232.783L252.358 173H241.708L236.758 159.725H218.158L213.283 173H202.633L222.283 119.75ZM234.883 152.45L227.533 130.475L219.883 152.45H234.883ZM278.873 173.375C274.973 173.375 271.423 172.625 268.223 171.125C265.073 169.575 262.348 167.525 260.048 164.975C257.798 162.425 256.048 159.55 254.798 156.35C253.548 153.1 252.923 149.775 252.923 146.375C252.923 142.825 253.573 139.45 254.873 136.25C256.223 133 258.048 130.125 260.348 127.625C262.698 125.075 265.448 123.075 268.598 121.625C271.798 120.125 275.298 119.375 279.098 119.375C282.948 119.375 286.448 120.15 289.598 121.7C292.798 123.25 295.523 125.325 297.773 127.925C300.023 130.525 301.773 133.425 303.023 136.625C304.273 139.825 304.898 143.125 304.898 146.525C304.898 150.025 304.248 153.4 302.948 156.65C301.648 159.85 299.823 162.725 297.473 165.275C295.173 167.775 292.423 169.75 289.223 171.2C286.073 172.65 282.623 173.375 278.873 173.375ZM278.948 164.225C281.448 164.225 283.673 163.725 285.623 162.725C287.573 161.675 289.198 160.3 290.498 158.6C291.798 156.85 292.773 154.925 293.423 152.825C294.123 150.675 294.473 148.525 294.473 146.375C294.473 144.075 294.098 141.85 293.348 139.7C292.648 137.55 291.623 135.65 290.273 134C288.973 132.35 287.348 131.025 285.398 130.025C283.498 129.025 281.348 128.525 278.948 128.525C276.398 128.525 274.148 129.05 272.198 130.1C270.298 131.1 268.698 132.475 267.398 134.225C266.098 135.925 265.098 137.825 264.398 139.925C263.748 142.025 263.423 144.175 263.423 146.375C263.423 148.675 263.773 150.9 264.473 153.05C265.173 155.2 266.173 157.1 267.473 158.75C268.823 160.4 270.448 161.725 272.348 162.725C274.298 163.725 276.498 164.225 278.948 164.225ZM277.898 153.275H287.648L305.198 173H295.448L277.898 153.275Z" fill="white"/>
</svg>
